<?xml version="1.0" encoding="utf-8"?>
<!-- Generator: Adobe Illustrator 27.0.0, SVG Export Plug-In . SVG Version: 6.00 Build 0)  -->
<svg version="1.1" id="Layer_1" xmlns="http://www.w3.org/2000/svg" xmlns:xlink="http://www.w3.org/1999/xlink" x="0px" y="0px"
	 viewBox="0 0 1009.13 328.83" style="enable-background:new 0 0 1009.13 328.83;" xml:space="preserve">
<style type="text/css">
	.st0{fill:#FFFFFF;}
</style>
<g>
	<path class="st0" d="M257.47,0h-238C8.72,0,0,8.72,0,19.47v170.91c0,76.47,61.99,138.45,138.46,138.45s138.46-61.99,138.46-138.45
		l0.03-170.91C276.94,8.72,268.22,0,257.47,0z M101.73,164.67c-34.65,0-62.74-28.09-62.74-62.74c0-34.65,28.09-62.74,62.74-62.74
		c34.65,0,62.74,28.09,62.74,62.74C164.47,136.58,136.38,164.67,101.73,164.67z"/>
	<g>
		<polygon class="st0" points="338.36,141.4 362.37,141.4 362.37,39.81 392.08,39.81 392.08,18.55 308.22,18.55 308.22,39.81 
			338.36,39.81 		"/>
		<path class="st0" d="M676.58,141.84c32.65,0,59.22-27.65,59.22-61.64s-26.57-61.64-59.22-61.64c-32.65,0-59.22,27.65-59.22,61.64
			S643.93,141.84,676.58,141.84z M676.58,42.49c19.45,0,35.28,16.91,35.28,37.71c0,20.79-15.83,37.7-35.28,37.7
			s-35.28-16.91-35.28-37.7C641.3,59.4,657.12,42.49,676.58,42.49z"/>
		<g>
			<rect x="511.2" y="200.46" class="st0" width="23.15" height="88.33"/>
			<path class="st0" d="M522.78,165.76c-7.74,0-14.03,6.29-14.03,14.03c0,7.73,6.29,14.03,14.03,14.03
				c7.73,0,14.03-6.29,14.03-14.03C536.8,172.05,530.51,165.76,522.78,165.76z"/>
		</g>
		<g>
			<rect x="845.42" y="200.46" class="st0" width="23.15" height="88.33"/>
			<path class="st0" d="M856.99,165.76c-7.74,0-14.03,6.29-14.03,14.03c0,7.73,6.29,14.03,14.03,14.03
				c7.73,0,14.03-6.29,14.03-14.03C871.02,172.05,864.72,165.76,856.99,165.76z"/>
		</g>
		<path class="st0" d="M795.19,220.69c1.69-1.33,4.09-2.01,7.15-2.01c3.91,0,7.5,1.06,10.65,3.16c3.13,2.09,5.39,4.93,6.73,8.44
			l0.55,1.47l18.09-8.51l-0.47-1.25c-2.68-7.18-7.25-12.84-13.59-16.81c-6.3-3.95-13.63-5.95-21.81-5.95
			c-6.26,0-11.91,1.14-16.78,3.38c-4.91,2.27-8.8,5.48-11.57,9.55c-2.78,4.1-4.19,8.93-4.19,14.35c0,6.11,1.96,11.48,5.84,15.95
			c3.82,4.42,9.5,7.75,16.87,9.89l13.75,3.86c1.66,0.49,3.22,1.1,4.62,1.83c1.31,0.68,2.36,1.49,3.1,2.41
			c0.66,0.82,0.99,1.89,0.99,3.19c0,2.26-0.85,3.96-2.68,5.35c-1.89,1.45-4.57,2.18-7.94,2.18c-4.43,0-8.5-1.27-12.1-3.77
			c-3.63-2.51-6.51-6.06-8.56-10.55l-0.61-1.34l-17.65,8.46l0.41,1.21c2.57,7.61,7.37,13.72,14.28,18.16
			c6.86,4.41,15.01,6.65,24.22,6.65c6.58,0,12.4-1.14,17.31-3.38c4.96-2.27,8.91-5.48,11.73-9.54c2.84-4.1,4.28-8.88,4.28-14.21
			c0-6.32-2.03-11.75-6.03-16.14c-3.93-4.3-9.54-7.56-16.67-9.69l-13.44-4.02c-1.9-0.6-3.58-1.25-4.99-1.93
			c-1.27-0.61-2.26-1.4-2.94-2.33c-0.64-0.87-0.96-1.94-0.96-3.18C792.8,223.54,793.56,221.98,795.19,220.69z"/>
		<path class="st0" d="M471.61,67.7c-2.78-4.98-6.72-8.92-11.71-11.7c-4.97-2.78-10.73-4.19-17.12-4.19
			c-6.19,0-11.69,1.38-16.35,4.12c-2.02,1.19-4.02,3.03-5.61,4.98V18.55H398.5v34.52v88.29h22.32h0.02V90.72
			c0-3.59,0.7-7.6,2.08-10.16c1.37-2.55,3.31-4.56,5.76-5.99c2.46-1.42,5.31-2.15,8.47-2.15c3.25,0,6.13,0.72,8.54,2.14
			c2.4,1.42,4.31,3.44,5.69,5.99c1.38,2.56,2.08,5.68,2.08,9.27v51.53h22.34V84.98C475.8,78.48,474.39,72.67,471.61,67.7z"/>
		<path class="st0" d="M395.58,238.79c0,15.03-12.23,27.26-27.26,27.26s-27.26-12.23-27.26-27.26v-73.03H317.1v73.03
			c0,28.25,22.98,51.23,51.23,51.23s51.23-22.98,51.23-51.23v-73.03h-23.97V238.79z"/>
		<path class="st0" d="M568.05,99.24c0.32-2.24,0.32-3.39,0.32-4.87c0-5.83-0.97-11.34-2.88-16.38c-1.91-5.04-4.71-9.6-8.33-13.53
			c-3.62-3.94-8.07-7.07-13.23-9.31c-5.16-2.23-11.21-3.36-17.98-3.36c-8.06,0-15.47,2-22,5.93c-6.53,3.93-11.75,9.33-15.52,16.07
			c-3.77,6.74-5.67,14.55-5.67,23.23c0,8.37,1.88,16.11,5.59,22.99c3.72,6.9,8.99,12.45,15.68,16.48
			c6.69,4.04,14.59,6.08,23.49,6.08c5.92,0,11.43-0.91,16.37-2.72c4.94-1.81,9.28-4.34,12.9-7.54c3.64-3.21,6.35-6.96,8.07-11.14
			l0.33-0.81l-18.17-8.92l-0.43,0.77c-1.79,3.18-4.29,5.76-7.42,7.64c-3.12,1.88-6.99,2.84-11.49,2.84s-8.53-1.06-11.96-3.15
			c-3.42-2.08-6.04-5.08-7.78-8.9c-0.94-2.06-1.57-4.33-1.9-6.75h60.82C566.87,103.92,567.52,102.98,568.05,99.24z M515.04,73.64
			c3.17-2.03,6.85-3.06,10.92-3.06c4.27,0,7.97,1.05,10.98,3.12c3.01,2.07,5.21,4.93,6.54,8.48c0.49,1.32,0.84,2.73,1.02,4.22
			h-37.91c0.31-1.35,0.72-2.62,1.21-3.8C509.44,78.68,511.88,75.67,515.04,73.64z"/>
		<path class="st0" d="M923.21,99.24c0.32-2.24,0.32-3.39,0.32-4.87c0-5.83-0.97-11.34-2.88-16.38c-1.91-5.04-4.71-9.6-8.33-13.53
			c-3.62-3.94-8.07-7.07-13.23-9.31c-5.16-2.23-11.21-3.36-17.98-3.36c-8.06,0-15.47,2-22,5.93c-6.53,3.93-11.75,9.33-15.52,16.07
			c-3.77,6.74-5.67,14.55-5.67,23.23c0,8.37,1.88,16.11,5.59,22.99c3.72,6.9,8.99,12.45,15.68,16.48
			c6.69,4.04,14.59,6.08,23.49,6.08c5.92,0,11.43-0.91,16.37-2.72c4.94-1.81,9.28-4.34,12.9-7.54c3.64-3.21,6.35-6.96,8.07-11.14
			l0.33-0.81l-18.17-8.92l-0.43,0.77c-1.79,3.18-4.29,5.76-7.42,7.64c-3.12,1.88-6.99,2.84-11.49,2.84c-4.5,0-8.53-1.06-11.96-3.15
			c-3.42-2.08-6.04-5.08-7.78-8.9c-0.94-2.06-1.57-4.33-1.9-6.75h60.82C922.03,103.92,922.68,102.98,923.21,99.24z M870.19,73.64
			c3.17-2.03,6.85-3.06,10.92-3.06c4.27,0,7.97,1.05,10.98,3.12c3.01,2.07,5.21,4.93,6.54,8.48c0.49,1.32,0.84,2.73,1.02,4.22
			h-37.91c0.31-1.35,0.72-2.62,1.21-3.8C864.6,78.68,867.03,75.67,870.19,73.64z"/>
		<path class="st0" d="M706,246.67c0.32-2.24,0.32-3.39,0.32-4.87c0-5.83-0.97-11.34-2.88-16.38c-1.91-5.04-4.71-9.6-8.33-13.53
			c-3.62-3.94-8.07-7.07-13.23-9.31c-5.16-2.23-11.21-3.36-17.98-3.36c-8.06,0-15.47,2-22,5.93c-6.53,3.93-11.75,9.33-15.52,16.07
			c-3.77,6.74-5.67,14.55-5.67,23.23c0,8.37,1.88,16.11,5.59,22.99c3.72,6.9,8.99,12.45,15.68,16.48
			c6.69,4.04,14.59,6.08,23.49,6.08c5.92,0,11.43-0.91,16.37-2.72c4.94-1.81,9.28-4.34,12.9-7.54c3.64-3.21,6.35-6.96,8.07-11.14
			l0.33-0.81l-18.17-8.92l-0.43,0.77c-1.79,3.18-4.29,5.76-7.42,7.64c-3.12,1.88-6.99,2.84-11.49,2.84s-8.53-1.06-11.96-3.15
			c-3.42-2.08-6.04-5.08-7.78-8.9c-0.94-2.06-1.57-4.33-1.9-6.75h60.82C704.82,251.35,705.47,250.41,706,246.67z M652.99,221.07
			c3.17-2.03,6.85-3.06,10.92-3.06c4.27,0,7.97,1.05,10.98,3.12c3.01,2.07,5.21,4.93,6.54,8.48c0.49,1.32,0.84,2.73,1.02,4.22
			h-37.91c0.31-1.35,0.72-2.62,1.21-3.8C647.39,226.11,649.83,223.1,652.99,221.07z"/>
		<path class="st0" d="M918.34,269.48c-3.32,0-6.06-0.52-8.14-1.54c-2.02-0.99-3.53-2.43-4.46-4.31c-0.96-1.92-1.45-4.3-1.45-7.08
			v-37.88h13.99v-18.21h-13.99v-21.15h-21.71v21.15h-6.99v18.21h6.98v39.02c0,10.19,1.43,18.21,7.06,23.84
			c5.63,5.63,13.65,8.48,23.84,8.48c1.66,0,3.51-0.11,5.47-0.33c1.97-0.22,3.71-0.43,5.24-0.66l0.79-0.11v-20.04l-4.03,0.44
			C919.94,269.42,919.07,269.48,918.34,269.48z"/>
		<path class="st0" d="M626.6,200.46h-25.19l-16.85,52.13c-0.4,1.25-0.69,2.54-0.86,3.84l-0.36,2.89l-0.37-2.89
			c-0.16-1.3-0.45-2.59-0.86-3.84l-16.85-52.13h-25.19l33.19,88.33h0h0h20.14h0l0,0L626.6,200.46z"/>
		<path class="st0" d="M983.94,200.46l-17.88,52.13c-0.4,1.25-0.69,2.54-0.86,3.84l-0.36,2.89l-0.37-2.89
			c-0.16-1.3-0.45-2.59-0.86-3.84l-15.83-52.13l-22.82,0l22.88,81.65c1.19,4.26,2.58,6.03,5.46,6.68l-14.4,37.95h23.89l46.32-126.28
			L983.94,200.46z"/>
		<path class="st0" d="M950.43,59.27c-1.33-4.1-4.32-6.23-9-6.23h-13.02v0.62v87.69h22.34v-51.5c0-3.59,0.7-6.72,2.08-9.27
			c1.37-2.55,3.31-4.56,5.76-5.99c2.46-1.42,5.31-2.15,8.47-2.15c3.25,0,6.13,0.72,8.54,2.14c2.4,1.42,4.31,3.44,5.69,5.99
			c1.38,2.56,2.08,5.68,2.08,9.27v51.5h22.34V84.99c0-6.49-1.41-12.31-4.19-17.28c-2.78-4.98-6.72-8.92-11.71-11.7
			c-4.97-2.78-10.73-4.19-17.12-4.19c-6.19,0-11.69,1.38-16.35,4.12c-2.1,1.23-4.01,2.83-5.59,4.58
			C950.76,60.52,950.61,59.8,950.43,59.27z"/>
		<path class="st0" d="M790.06,51.81c-9.11,0-18.99,2.42-25.55,8.71c0,0-0.15-0.72-0.33-1.25c-1.33-4.1-4.32-6.23-9-6.23h-13.02
			v0.03v0.59v3.96v60.29v26.61v34.79v0h22.34v0v-34.79v-10.55l0.05,0.04c2.16,1.89,4.58,3.47,7.23,4.72
			c5.27,2.5,11.11,3.76,17.36,3.76c8.37,0,15.94-2.02,22.53-6c6.57-3.97,11.84-9.48,15.66-16.37c3.81-6.89,5.74-14.62,5.74-22.97
			c0-8.46-1.96-16.2-5.83-22.97C819.43,60.61,806.03,51.81,790.06,51.81z M807.38,110.01c-1.94,3.68-4.69,6.61-8.17,8.7
			c-3.49,2.09-7.53,3.15-12.03,3.15c-4.29,0-8.2-1.06-11.63-3.15c-3.43-2.09-6.16-5.02-8.1-8.71c-1.95-3.7-2.94-8.03-2.94-12.85
			c0-4.72,0.99-9.03,2.94-12.78c1.94-3.74,4.67-6.69,8.1-8.78c3.43-2.09,7.34-3.15,11.63-3.15c4.49,0,8.54,1.08,12.02,3.22
			c3.49,2.15,6.24,5.08,8.18,8.72c1.95,3.65,2.94,7.95,2.94,12.77C810.32,101.99,809.34,106.31,807.38,110.01z"/>
		<path class="st0" d="M448.67,206.72c-1.33-4.1-4.32-6.23-9-6.23h-13.02v0.62v87.69H449v-51.5c0-3.59,0.7-6.72,2.08-9.27
			c1.37-2.55,3.31-4.56,5.76-5.99c2.46-1.42,5.31-2.15,8.47-2.15c3.25,0,6.13,0.72,8.54,2.14c2.4,1.42,4.31,3.44,5.69,5.99
			c1.38,2.56,2.08,5.68,2.08,9.27v51.5h22.34v-56.35c0-6.49-1.41-12.31-4.19-17.28c-2.78-4.98-6.72-8.92-11.71-11.7
			c-4.97-2.78-10.73-4.19-17.12-4.19c-6.19,0-11.69,1.38-16.35,4.12c-2.1,1.23-4.01,2.83-5.59,4.58
			C449,207.97,448.85,207.25,448.67,206.72z"/>
		<path class="st0" d="M735.87,207.97c0,0-0.15-0.72-0.33-1.25c-1.33-4.1-4.32-6.23-9-6.23h-13.02v0.62v87.69h22.34v-48.37
			l0.01-0.08c0-7.56,3.72-12.68,6.07-15.06c3.39-3.45,8.52-5.35,14-5.35c5.48,0,8.56,1.02,8.56,1.02v-20.71c0,0-2.12-1.01-6.12-1.02
			c-4.56,0-8.04,0.33-12.14,1.79C742.13,202.49,738.62,205.31,735.87,207.97z"/>
	</g>
</g>
</svg>
